<svg width="100" height="100" viewBox="0 0 100 100" fill="none" xmlns="http://www.w3.org/2000/svg">
    <path d="M30 20H70V85C70 87.7614 67.7614 90 65 90H35C32.2386 90 30 87.7614 30 85V20Z" fill="#7BC67B"/>
    <path d="M25 20H75V25H25V20Z" fill="#5A9758"/>
    <path d="M40 15H60V20H40V15Z" fill="#5A9758"/>
    <path d="M50 35L60 50H40L50 35Z" fill="#FFFFFF"/>
    <path d="M50 65L40 50H60L50 65Z" fill="#FFFFFF"/>
    <path d="M35 50L50 45L65 50L50 55L35 50Z" fill="#FFFFFF"/>
    <circle cx="35" cy="75" r="8" fill="#E74C3C"/>
    <circle cx="35" cy="75" r="4" fill="#FFFFFF"/>
</svg>

