<svg width="100" height="100" viewBox="0 0 100 100" fill="none" xmlns="http://www.w3.org/2000/svg">
    <path d="M50 20C33.4315 20 20 33.4315 20 50C20 66.5685 33.4315 80 50 80C66.5685 80 80 66.5685 80 50C80 33.4315 66.5685 20 50 20Z" fill="#ECF0F1"/>
    <path d="M35 40L45 30L55 40" fill="#27AE60"/>
    <path d="M45 30V50" fill="#27AE60"/>
    <path d="M65 40L55 30L45 40" fill="#3498DB"/>
    <path d="M55 30V50" fill="#3498DB"/>
    <path d="M35 60L45 70L55 60" fill="#E74C3C"/>
    <path d="M45 70V50" fill="#E74C3C"/>
    <path d="M65 60L55 70L45 60" fill="#F1C40F"/>
    <path d="M55 70V50" fill="#F1C40F"/>
</svg>

